<svg xmlns="http://www.w3.org/2000/svg" width="18.25" height="17.531" viewBox="0 0 18.25 17.531">
  <defs>
    <style>
      .cls-1 {
        fill: #bdc6cf;
        fill-rule: evenodd;
      }
    </style>
  </defs>
  <path id="ico_top50" class="cls-1" d="M140.678,271.759a1.314,1.314,0,0,0-.727-2.24l-4.425-.644a0.58,0.58,0,0,1-.436-0.317l-1.978-4.016a1.309,1.309,0,0,0-2.35,0l-1.979,4.017a0.579,0.579,0,0,1-.436.317l-4.424.644a1.313,1.313,0,0,0-.727,2.239l3.2,3.126a0.579,0.579,0,0,1,.167.514l-0.755,4.414a1.285,1.285,0,0,0,.286,1.064,1.322,1.322,0,0,0,1.615.32l3.958-2.085a0.593,0.593,0,0,1,.538,0l3.958,2.085a1.3,1.3,0,0,0,.609.153,1.314,1.314,0,0,0,1.006-.473,1.286,1.286,0,0,0,.286-1.064l-0.756-4.414a0.582,0.582,0,0,1,.167-0.514Z" transform="translate(-122.813 -263.813)"/>
</svg>
