<svg xmlns="http://www.w3.org/2000/svg" width="21.594" height="19.219" viewBox="0 0 21.594 19.219">
  <defs>
    <style>
      .cls-1 {
        fill: #bdc6cf;
        fill-rule: evenodd;
      }
    </style>
  </defs>
  <path id="ico_playlist" class="cls-1" d="M122.528,394.383h7.2a1.221,1.221,0,1,0,0-2.4h-7.2A1.221,1.221,0,1,0,122.528,394.383Zm0,3.6h7.2a1.221,1.221,0,1,0,0-2.4h-7.2A1.221,1.221,0,1,0,122.528,397.985Zm8.645,2.4a1.338,1.338,0,0,0-1.441-1.2h-7.2a1.221,1.221,0,1,0,0,2.4h7.2A1.338,1.338,0,0,0,131.173,400.387Zm7.714-5.557c-0.823-.53-1.95-1.255-1.95-1.648a1.465,1.465,0,0,0-2.882,0V404.2a5.09,5.09,0,0,0-1.441-.209c-2.387,0-4.322,1.613-4.322,3.6s1.935,3.6,4.322,3.6,4.323-1.613,4.323-3.6V396.608l0.19,0.124c1.626,1.045,2.691,1.8,2.691,2.788a3.315,3.315,0,0,1-1,2.408,1.065,1.065,0,0,0-.029,1.7,1.651,1.651,0,0,0,2.038.024,5.483,5.483,0,0,0,1.877-4.13C142.7,397.282,140.586,395.922,138.887,394.83Z" transform="translate(-121.094 -391.969)"/>
</svg>
