<svg xmlns="http://www.w3.org/2000/svg" width="24.125" height="14.219" viewBox="0 0 24.125 14.219">
  <defs>
    <style>
      .cls-1 {
        fill: #bdc6cf;
        fill-rule: evenodd;
      }
    </style>
  </defs>
  <path id="ico_new_charts" class="cls-1" d="M120.5,323.454h22.316a0.88,0.88,0,0,0,.895-0.867V316.3a0.881,0.881,0,0,0-.895-0.867h-6.687V310.12a0.88,0.88,0,0,0-.895-0.867h-7.152a0.88,0.88,0,0,0-.895.867v3.821H120.5a0.881,0.881,0,0,0-.9.868v7.776A0.882,0.882,0,0,0,120.5,323.454Zm17.656-2.944,0.442-.053a0.254,0.254,0,0,1,.272.174,0.758,0.758,0,0,0,.2.332,0.677,0.677,0,0,0,.48.184,0.668,0.668,0,0,0,.507-0.222,0.843,0.843,0,0,0,.208-0.6,0.779,0.779,0,0,0-.2-0.564,0.639,0.639,0,0,0-.482-0.209c-0.037,0-.077,0-0.12.007a0.252,0.252,0,0,1-.28-0.281l0.03-.22a0.251,0.251,0,0,1,.228-0.213,0.745,0.745,0,0,0,.405-0.158,0.585,0.585,0,0,0,.207-0.47,0.525,0.525,0,0,0-.153-0.4,0.552,0.552,0,0,0-.4-0.148,0.6,0.6,0,0,0-.428.167,0.681,0.681,0,0,0-.17.279,0.26,0.26,0,0,1-.287.172l-0.382-.063a0.247,0.247,0,0,1-.2-0.32,1.559,1.559,0,0,1,.21-0.439,1.255,1.255,0,0,1,.527-0.419,1.812,1.812,0,0,1,.757-0.153,1.537,1.537,0,0,1,1.152.444,1.144,1.144,0,0,1,.358.821,1.159,1.159,0,0,1-.733,1.035,1.191,1.191,0,0,1,.7.407,1.156,1.156,0,0,1,.263.763,1.46,1.46,0,0,1-.49,1.108,1.867,1.867,0,0,1-2.362.072,1.452,1.452,0,0,1-.472-0.727A0.245,0.245,0,0,1,138.151,320.51Zm-7.8-8.2a0.247,0.247,0,0,1,.153-0.228,3.177,3.177,0,0,0,.675-0.4,1.817,1.817,0,0,0,.552-0.645,0.259,0.259,0,0,1,.232-0.145h0.365a0.25,0.25,0,0,1,.255.247v4.453a0.251,0.251,0,0,1-.255.248h-0.462a0.251,0.251,0,0,1-.255-0.248v-3.309a3.341,3.341,0,0,1-.9.579,0.254,0.254,0,0,1-.36-0.226v-0.324h0Zm-8.309,7.744a2.3,2.3,0,0,1,.277-0.637,6.313,6.313,0,0,1,1.1-1.183,6.639,6.639,0,0,0,.808-0.807,1.006,1.006,0,0,0,.2-0.579,0.648,0.648,0,0,0-.175-0.487,0.763,0.763,0,0,0-.97.01,0.726,0.726,0,0,0-.18.373,0.254,0.254,0,0,1-.275.2l-0.455-.043a0.251,0.251,0,0,1-.225-0.3,1.366,1.366,0,0,1,.5-0.845,1.874,1.874,0,0,1,1.145-.34,1.682,1.682,0,0,1,1.182.393,1.27,1.27,0,0,1,.43.979,1.647,1.647,0,0,1-.123.635,2.539,2.539,0,0,1-.39.63,5.982,5.982,0,0,1-.637.629q-0.461.411-.585,0.546a1.8,1.8,0,0,0-.2.261h1.68a0.251,0.251,0,0,1,.255.248v0.38a0.251,0.251,0,0,1-.255.247h-2.854A0.25,0.25,0,0,1,122.044,320.05Z" transform="translate(-119.594 -309.25)"/>
</svg>
